<svg width="35" height="47" viewBox="0 0 35 47" fill="none" xmlns="http://www.w3.org/2000/svg">
<path d="M17.1718 29.2832C21.2126 29.2832 24.4745 26.0213 24.4745 21.9805V7.37509C24.4745 3.33426 21.2126 0.0723877 17.1718 0.0723877C13.131 0.0723877 9.86908 3.33426 9.86908 7.37509V21.9805C9.86908 26.0213 13.131 29.2832 17.1718 29.2832Z" fill="#E8E5FB"/>
<path d="M29.343 21.9805C29.343 28.699 23.8903 34.1517 17.1718 34.1517C10.4533 34.1517 5.00061 28.699 5.00061 21.9805H0.132141C0.132141 30.5734 6.48549 37.6326 14.7376 38.8254V46.3229H19.606V38.8254C27.8581 37.6326 34.2114 30.5734 34.2114 21.9805H29.343Z" fill="#E8E5FB"/>
</svg>
