<svg xmlns="http://www.w3.org/2000/svg" version="1.1" xmlns:xlink="http://www.w3.org/1999/xlink" xmlns:svgjs="http://svgjs.dev/svgjs" width="162.57" height="91.83"><svg id="SvgjsSvg1003" data-name="Calque 2" xmlns="http://www.w3.org/2000/svg" viewBox="0 0 162.57 91.83">
  <defs>
    <style>
      .cls-1 {
        fill: #fafafa;
      }

      .cls-1, .cls-2 {
        stroke-width: 0px;
      }

      .cls-2 {
        fill: #351eaf;
      }
    </style>
  </defs>
  <g id="SvgjsG1002" data-name="Calque 1">
    <g>
      <path class="cls-2" d="M150.66,43.68l.12,10.48c.24,19.97-15.92,36.51-35.89,36.75l-78.02.92C16.89,92.06.36,75.9.13,55.93L0,45.45C-.23,25.49,15.91,8.94,35.89,8.71l78.02-.92c12.46-.15,23.58,6.08,30.24,15.64-1.32.6-2.81.99-4.45,1.25-1.88.19-2.91,1.54-3.26,2.85-.47,1.74.46,3.83,3.33,4.59,1.37.37,3.17.49,4.99.05,1.17-.3,2.3-.72,3.41-1.23,1.55,3.96,2.43,8.25,2.48,12.73Z"></path>
      <g>
        <path class="cls-1" d="M59.44,59.7c-3.36,3.44-7.44,5.18-12.26,5.23-4.34.05-7.86-1.27-10.53-3.96-2.68-2.7-4.04-6.25-4.1-10.67-.05-4.42,1.26-8.01,3.9-10.77,2.65-2.75,6.11-4.15,10.37-4.2,4.5-.05,8.43,1.44,11.78,4.48l10.17-11.37c-3.12-2.96-6.65-5.19-10.62-6.69-3.97-1.49-8.12-2.21-12.47-2.16-6.31.07-11.86,1.42-16.64,4.05-4.79,2.62-8.5,6.25-11.12,10.9-2.64,4.65-3.91,10.02-3.84,16.1s1.46,11.51,4.16,16.06c2.69,4.54,6.49,8.03,11.37,10.46,4.88,2.43,10.6,3.61,17.15,3.53,9.08-.11,16.85-3.43,23.33-9.99l-10.67-11.01Z"></path>
        <path class="cls-1" d="M134.1,33.12c-2.65-4.54-6.45-8.07-11.38-10.58-4.92-2.51-10.62-3.73-17.09-3.65-6.48.08-12.12,1.42-16.95,4.05-4.82,2.62-8.51,6.24-11.06,10.84-2.55,4.61-3.79,9.96-3.72,16.04s1.44,11.39,4.1,15.94c2.66,4.55,6.44,8.07,11.32,10.59,4.89,2.5,10.56,3.72,17.04,3.64,6.47-.08,12.14-1.42,17-4.04,4.87-2.63,8.58-6.24,11.12-10.85,2.56-4.61,3.79-9.96,3.72-16.03s-1.43-11.39-4.1-15.94ZM116.06,59.99c-2.5,2.79-5.8,4.21-9.9,4.26-4.03.05-7.33-1.29-9.88-4.02-2.56-2.73-3.86-6.27-3.92-10.61s1.17-7.9,3.66-10.7c2.49-2.79,5.75-4.21,9.78-4.26,4.1-.05,7.44,1.29,10,4.02,2.55,2.74,3.86,6.27,3.92,10.61.05,4.34-1.18,7.91-3.66,10.7Z"></path>
      </g>
      <path class="cls-2" d="M154.46.4c-5.43-1.44-10.52,1.03-12.02,6.67-1.9,7.15,4.11,10.72,7.17,11.19-1.4,2.55-3.21,4.16-5.46,5.17,1.63,2.32,2.98,4.85,4.03,7.51,6.69-3.08,12.13-9.69,13.81-16.01,2.15-8.14-2-13.07-7.53-14.53Z"></path>
    </g>
  </g>
</svg><style>@media (prefers-color-scheme: light) { :root { filter: none; } }
@media (prefers-color-scheme: dark) { :root { filter: none; } }
</style></svg>