<svg width="30" height="30" viewBox="0 0 30 30" fill="none" xmlns="http://www.w3.org/2000/svg">
<path d="M16.5425 0C18.2299 0.0044999 19.0864 0.0134997 19.8259 0.0344992L20.1169 0.0449989C20.4529 0.0569986 20.7844 0.0719982 21.1849 0.0899978C22.7808 0.164996 23.8698 0.41699 24.8253 0.787482C25.8153 1.16847 26.6492 1.68446 27.4832 2.51694C28.2459 3.26677 28.8361 4.17379 29.2127 5.17488C29.5832 6.13036 29.8352 7.21933 29.9102 8.81679C29.9282 9.21578 29.9432 9.54728 29.9552 9.88477L29.9642 10.1758C29.9867 10.9137 29.9957 11.7702 29.9987 13.4577L30.0002 14.5767V16.5416C30.0039 17.6357 29.9923 18.7298 29.9657 19.8235L29.9567 20.1145C29.9447 20.452 29.9297 20.7835 29.9117 21.1825C29.8367 22.78 29.5817 23.8674 29.2127 24.8244C28.8372 25.8261 28.2469 26.7333 27.4832 27.4824C26.7332 28.2448 25.8262 28.835 24.8253 29.2118C23.8698 29.5823 22.7808 29.8343 21.1849 29.9093C20.829 29.9261 20.473 29.9411 20.1169 29.9543L19.8259 29.9633C19.0864 29.9843 18.2299 29.9948 16.5425 29.9978L15.4235 29.9993H13.4601C12.3655 30.0031 11.2709 29.9916 10.1766 29.9648L9.88563 29.9558C9.52956 29.9423 9.17356 29.9268 8.81766 29.9093C7.2217 29.8343 6.13272 29.5823 5.17574 29.2118C4.17477 28.8359 3.26811 28.2456 2.51931 27.4824C1.75589 26.7328 1.16517 25.8257 0.788347 24.8244C0.417856 23.8689 0.165862 22.78 0.0908633 21.1825C0.0741519 20.8266 0.0591521 20.4706 0.0458644 20.1145L0.0383647 19.8235C0.0107235 18.7298 -0.00177758 17.6357 0.000865481 16.5416V13.4577C-0.00332087 12.3636 0.00768004 11.2695 0.0338648 10.1758L0.0443645 9.88477C0.0563642 9.54728 0.0713639 9.21578 0.0893634 8.81679C0.164362 7.21933 0.416356 6.13186 0.786847 5.17488C1.16351 4.17276 1.7554 3.26546 2.52081 2.51694C3.26943 1.75417 4.17548 1.16395 5.17574 0.787482C6.13272 0.41699 7.2202 0.164996 8.81766 0.0899978C9.21665 0.0719982 9.54964 0.0569986 9.88563 0.0449989L10.1766 0.0359991C11.2704 0.00934884 12.3645 -0.002152 13.4586 0.00149986L16.5425 0ZM15.0005 7.49982C13.0114 7.49983 11.1038 8.28998 9.69734 9.69647C8.29085 11.103 7.50069 13.0106 7.50069 14.9996C7.50069 16.9887 8.29085 18.8963 9.69734 20.3028C11.1038 21.7093 13.0114 22.4995 15.0005 22.4995C16.9896 22.4995 18.8972 21.7093 20.3037 20.3028C21.7102 18.8963 22.5003 16.9887 22.5003 14.9996C22.5003 13.0106 21.7102 11.103 20.3037 9.69647C18.8972 8.28998 16.9896 7.49982 15.0005 7.49982ZM15.0005 10.4998C15.5914 10.4997 16.1766 10.616 16.7226 10.842C17.2686 11.0681 17.7647 11.3994 18.1826 11.8172C18.6006 12.235 18.9321 12.731 19.1583 13.2769C19.3846 13.8228 19.5011 14.408 19.5012 14.9989C19.5013 15.5898 19.385 16.175 19.1589 16.721C18.9329 17.267 18.6015 17.7631 18.1837 18.181C17.7659 18.5989 17.2699 18.9305 16.724 19.1567C16.1781 19.383 15.5929 19.4994 15.002 19.4995C13.8086 19.4995 12.664 19.0254 11.8201 18.1816C10.9762 17.3377 10.5021 16.1931 10.5021 14.9996C10.5021 13.8062 10.9762 12.6616 11.8201 11.8177C12.664 10.9738 13.8086 10.4998 15.002 10.4998M22.8768 5.24988C22.3796 5.24988 21.9027 5.44742 21.551 5.79904C21.1994 6.15066 21.0019 6.62756 21.0019 7.12483C21.0019 7.6221 21.1994 8.09901 21.551 8.45063C21.9027 8.80225 22.3796 8.99979 22.8768 8.99979C23.3741 8.99979 23.851 8.80225 24.2026 8.45063C24.5542 8.09901 24.7518 7.6221 24.7518 7.12483C24.7518 6.62756 24.5542 6.15066 24.2026 5.79904C23.851 5.44742 23.3741 5.24988 22.8768 5.24988Z" fill="#E8E5FB"/>
</svg>
