<svg width="30" height="30" viewBox="0 0 30 30" fill="none" xmlns="http://www.w3.org/2000/svg">
<g clip-path="url(#clip0_1181_286)">
<path d="M26.6675 0C27.5516 0 28.3994 0.351189 29.0245 0.976311C29.6497 1.60143 30.0009 2.44928 30.0009 3.33333V26.6667C30.0009 27.5507 29.6497 28.3986 29.0245 29.0237C28.3994 29.6488 27.5516 30 26.6675 30H3.33419C2.45013 30 1.60229 29.6488 0.977165 29.0237C0.352044 28.3986 0.000854492 27.5507 0.000854492 26.6667V3.33333C0.000854492 2.44928 0.352044 1.60143 0.977165 0.976311C1.60229 0.351189 2.45013 0 3.33419 0H26.6675ZM25.8342 25.8333V17C25.8342 15.559 25.2617 14.177 24.2428 13.1581C23.2239 12.1391 21.8419 11.5667 20.4009 11.5667C18.9842 11.5667 17.3342 12.4333 16.5342 13.7333V11.8833H11.8842V25.8333H16.5342V17.6167C16.5342 16.3333 17.5675 15.2833 18.8509 15.2833C19.4697 15.2833 20.0632 15.5292 20.5008 15.9668C20.9384 16.4043 21.1842 16.9978 21.1842 17.6167V25.8333H25.8342ZM6.46752 9.26667C7.21013 9.26667 7.92232 8.97167 8.44742 8.44657C8.97252 7.92146 9.26752 7.20927 9.26752 6.46667C9.26752 4.91667 8.01752 3.65 6.46752 3.65C5.72049 3.65 5.00406 3.94675 4.47584 4.47498C3.94761 5.00321 3.65085 5.71964 3.65085 6.46667C3.65085 8.01667 4.91752 9.26667 6.46752 9.26667ZM8.78419 25.8333V11.8833H4.16752V25.8333H8.78419Z" fill="#E8E5FB"/>
</g>
<defs>
<clipPath id="clip0_1181_286">
<rect width="30" height="30" fill="white" transform="translate(0.000854492)"/>
</clipPath>
</defs>
</svg>
